<mxfile host="app.diagrams.net" agent="Mozilla/5.0 (Windows NT 10.0; Win64; x64) AppleWebKit/537.36 (KHTML, like Gecko) Chrome/136.0.0.0 Safari/537.36 Edg/136.0.0.0" version="27.1.1">
  <diagram name="PÃ¡gina-1" id="qrJPi79Hsb8NqlR-143r">
    <mxGraphModel dx="768" dy="352" grid="1" gridSize="10" guides="1" tooltips="1" connect="1" arrows="1" fold="1" page="1" pageScale="1" pageWidth="827" pageHeight="1169" math="0" shadow="0">
      <root>
        <mxCell id="0" />
        <mxCell id="1" parent="0" />
        <mxCell id="t896_xEb4ONCaWdzfJvj-1" value="Frase do Personagem A" style="text;html=1;align=center;verticalAlign=middle;whiteSpace=wrap;rounded=0;" parent="1" vertex="1">
          <mxGeometry x="30" y="180" width="90" height="30" as="geometry" />
        </mxCell>
        <mxCell id="t896_xEb4ONCaWdzfJvj-2" value="Encoder&lt;div&gt;(Bidirecional LSTM)&lt;/div&gt;" style="rounded=1;whiteSpace=wrap;html=1;" parent="1" vertex="1">
          <mxGeometry x="200" y="165" width="120" height="60" as="geometry" />
        </mxCell>
        <mxCell id="t896_xEb4ONCaWdzfJvj-3" value="" style="endArrow=classic;html=1;rounded=0;exitX=1;exitY=0.5;exitDx=0;exitDy=0;entryX=0;entryY=0.5;entryDx=0;entryDy=0;" parent="1" source="t896_xEb4ONCaWdzfJvj-1" target="t896_xEb4ONCaWdzfJvj-2" edge="1">
          <mxGeometry width="50" height="50" relative="1" as="geometry">
            <mxPoint x="300" y="360" as="sourcePoint" />
            <mxPoint x="350" y="310" as="targetPoint" />
          </mxGeometry>
        </mxCell>
        <mxCell id="t896_xEb4ONCaWdzfJvj-4" value="camada h&lt;div&gt;contexto&lt;/div&gt;" style="text;html=1;align=center;verticalAlign=middle;whiteSpace=wrap;rounded=0;" parent="1" vertex="1">
          <mxGeometry x="390" y="180" width="60" height="30" as="geometry" />
        </mxCell>
        <mxCell id="t896_xEb4ONCaWdzfJvj-5" value="" style="endArrow=classic;html=1;rounded=0;exitX=1;exitY=0.5;exitDx=0;exitDy=0;entryX=0;entryY=0.5;entryDx=0;entryDy=0;" parent="1" source="t896_xEb4ONCaWdzfJvj-2" target="t896_xEb4ONCaWdzfJvj-4" edge="1">
          <mxGeometry width="50" height="50" relative="1" as="geometry">
            <mxPoint x="170" y="190" as="sourcePoint" />
            <mxPoint x="250" y="190" as="targetPoint" />
          </mxGeometry>
        </mxCell>
        <mxCell id="t896_xEb4ONCaWdzfJvj-6" value="Decoder&lt;div&gt;(Outro LSTM)&lt;/div&gt;" style="rounded=1;whiteSpace=wrap;html=1;" parent="1" vertex="1">
          <mxGeometry x="360" y="340" width="120" height="60" as="geometry" />
        </mxCell>
        <mxCell id="t896_xEb4ONCaWdzfJvj-7" value="camada h&lt;div&gt;contexto&lt;/div&gt;" style="text;html=1;align=center;verticalAlign=middle;whiteSpace=wrap;rounded=0;" parent="1" vertex="1">
          <mxGeometry x="220" y="355" width="60" height="30" as="geometry" />
        </mxCell>
        <mxCell id="t896_xEb4ONCaWdzfJvj-8" value="" style="endArrow=classic;html=1;rounded=0;exitX=1;exitY=0.5;exitDx=0;exitDy=0;entryX=0;entryY=0.5;entryDx=0;entryDy=0;" parent="1" source="t896_xEb4ONCaWdzfJvj-7" target="t896_xEb4ONCaWdzfJvj-6" edge="1">
          <mxGeometry width="50" height="50" relative="1" as="geometry">
            <mxPoint x="280" y="369.76" as="sourcePoint" />
            <mxPoint x="350" y="369.76" as="targetPoint" />
          </mxGeometry>
        </mxCell>
        <mxCell id="t896_xEb4ONCaWdzfJvj-10" value="Frase do Personagem B" style="text;html=1;align=center;verticalAlign=middle;whiteSpace=wrap;rounded=0;" parent="1" vertex="1">
          <mxGeometry x="570" y="350" width="100" height="30" as="geometry" />
        </mxCell>
        <mxCell id="t896_xEb4ONCaWdzfJvj-11" value="" style="endArrow=classic;html=1;rounded=0;exitX=1;exitY=0.5;exitDx=0;exitDy=0;entryX=0;entryY=0.5;entryDx=0;entryDy=0;" parent="1" edge="1">
          <mxGeometry width="50" height="50" relative="1" as="geometry">
            <mxPoint x="480" y="370" as="sourcePoint" />
            <mxPoint x="560" y="370" as="targetPoint" />
          </mxGeometry>
        </mxCell>
        <mxCell id="t896_xEb4ONCaWdzfJvj-12" value="Good morning how are you ?" style="text;html=1;align=center;verticalAlign=middle;whiteSpace=wrap;rounded=0;" parent="1" vertex="1">
          <mxGeometry x="40" y="225" width="170" height="30" as="geometry" />
        </mxCell>
        <mxCell id="t896_xEb4ONCaWdzfJvj-13" value="I&#39;m fine thank you &amp;lt;EOS&amp;gt;" style="text;html=1;align=center;verticalAlign=middle;whiteSpace=wrap;rounded=0;" parent="1" vertex="1">
          <mxGeometry x="490" y="320" width="150" height="30" as="geometry" />
        </mxCell>
        <mxCell id="t896_xEb4ONCaWdzfJvj-14" value="" style="curved=1;endArrow=classic;html=1;rounded=0;exitX=1;exitY=0.75;exitDx=0;exitDy=0;entryX=0;entryY=0.25;entryDx=0;entryDy=0;" parent="1" source="t896_xEb4ONCaWdzfJvj-2" target="t896_xEb4ONCaWdzfJvj-6" edge="1">
          <mxGeometry width="50" height="50" relative="1" as="geometry">
            <mxPoint x="310" y="320" as="sourcePoint" />
            <mxPoint x="360" y="270" as="targetPoint" />
            <Array as="points">
              <mxPoint x="380" y="230" />
              <mxPoint x="360" y="270" />
              <mxPoint x="330" y="280" />
              <mxPoint x="310" y="280" />
              <mxPoint x="290" y="330" />
            </Array>
          </mxGeometry>
        </mxCell>
        <mxCell id="t896_xEb4ONCaWdzfJvj-17" style="edgeStyle=orthogonalEdgeStyle;rounded=0;orthogonalLoop=1;jettySize=auto;html=1;exitX=1;exitY=0.5;exitDx=0;exitDy=0;entryX=0;entryY=0.75;entryDx=0;entryDy=0;" parent="1" source="t896_xEb4ONCaWdzfJvj-15" target="t896_xEb4ONCaWdzfJvj-6" edge="1">
          <mxGeometry relative="1" as="geometry" />
        </mxCell>
        <mxCell id="t896_xEb4ONCaWdzfJvj-15" value="&amp;lt;BOS&amp;gt; Good morning how are you ?" style="text;html=1;align=center;verticalAlign=middle;whiteSpace=wrap;rounded=0;" parent="1" vertex="1">
          <mxGeometry x="110" y="400" width="210" height="30" as="geometry" />
        </mxCell>
      </root>
    </mxGraphModel>
  </diagram>
</mxfile>
